<?xml version="1.0" encoding="UTF-8"?>
<!-- Generator: visioncortex VTracer 0.6.12 -->
<svg version="1.1" xmlns="http://www.w3.org/2000/svg" width="360" height="50">
<path d="M0 0 C0.73 0 1.46 0.01 2.21 0.01 C4.53 0.02 6.85 0.04 9.18 0.07 C10.75 0.08 12.33 0.09 13.9 0.1 C17.77 0.12 21.63 0.15 25.49 0.2 C25.49 2.51 25.49 4.82 25.49 7.2 C15.59 7.53 5.69 7.86 -4.51 8.2 C-4.51 15.46 -4.51 22.72 -4.51 30.2 C3.08 30.53 10.67 30.86 18.49 31.2 C18.49 28.56 18.49 25.92 18.49 23.2 C12.22 23.2 5.95 23.2 -0.51 23.2 C-0.51 20.56 -0.51 17.92 -0.51 15.2 C3.63 15.17 7.78 15.15 11.93 15.13 C13.11 15.12 14.29 15.12 15.51 15.11 C16.64 15.1 17.76 15.1 18.92 15.1 C19.96 15.09 21.01 15.09 22.08 15.08 C24.49 15.2 24.49 15.2 25.49 16.2 C25.59 17.74 25.62 19.3 25.62 20.85 C25.62 21.32 25.62 21.32 25.62 23.7 C25.62 24.69 25.62 25.68 25.61 26.7 C25.62 27.19 25.62 27.19 25.62 29.69 C25.62 30.63 25.62 31.57 25.62 32.54 C25.62 33.41 25.62 34.28 25.62 35.17 C25.49 37.2 25.49 37.2 24.49 38.2 C20 38.49 15.51 38.51 11.02 38.55 C9.5 38.56 7.99 38.59 6.48 38.63 C4.3 38.68 2.12 38.7 -0.06 38.72 C-0.71 38.73 -0.71 38.73 -4.02 38.78 C-8.38 38.05 -9.81 36.62 -12.51 33.2 C-13.97 28.81 -13.74 24.54 -13.76 19.95 C-13.78 19.02 -13.8 18.09 -13.82 17.13 C-13.86 11.37 -13.37 7.24 -10.51 2.2 C-6.87 -0.23 -4.2 -0.06 0 0 Z " fill="#7C3AED" transform="translate(191.51171875,5.8046875)"/>
<path d="M0 0 C1.12 0 2.24 0.01 3.39 0.01 C4.56 0.02 5.72 0.03 6.93 0.04 C8.1 0.04 9.28 0.04 10.5 0.05 C13.41 0.06 16.32 0.08 19.24 0.1 C20.82 3.27 20.36 6.69 20.34 10.17 C20.33 10.96 20.33 11.76 20.33 12.58 C20.33 15.13 20.31 17.68 20.3 20.22 C20.3 21.95 20.29 23.67 20.29 25.4 C20.28 29.63 20.26 33.86 20.24 38.1 C17.6 38.1 14.96 38.1 12.24 38.1 C12.24 35.13 12.24 32.16 12.24 29.1 C4.65 29.1 -2.94 29.1 -10.76 29.1 C-10.76 32.07 -10.76 35.04 -10.76 38.1 C-13.4 38.1 -16.04 38.1 -18.76 38.1 C-18.85 34.06 -18.9 30.01 -18.95 25.97 C-18.97 24.83 -19 23.69 -19.03 22.51 C-19.09 15.56 -18.96 10.57 -14.04 5.23 C-13.46 4.76 -12.87 4.28 -12.26 3.79 C-11.67 3.29 -11.09 2.8 -10.48 2.3 C-7.07 -0.08 -4.02 -0.02 0 0 Z M-8.64 11.66 C-11.34 15.11 -10.76 16.01 -10.76 21.1 C-3.17 21.1 4.42 21.1 12.24 21.1 C12.24 16.48 12.24 11.86 12.24 7.1 C-2.56 6.6 -2.56 6.6 -8.64 11.66 Z " fill="#7C3AED" transform="translate(241.76171875,5.90234375)"/>
<path d="M0 0 C1.17 0 2.33 0.01 3.54 0.01 C4.76 0.02 5.98 0.03 7.24 0.04 C8.47 0.04 9.7 0.04 10.97 0.05 C14.02 0.06 17.07 0.08 20.12 0.1 C21.7 3.27 21.24 6.69 21.21 10.17 C21.21 10.96 21.21 11.76 21.21 12.58 C21.2 15.13 21.19 17.68 21.18 20.22 C21.17 21.95 21.17 23.67 21.17 25.4 C21.15 29.63 21.14 33.86 21.12 38.1 C18.48 38.1 15.84 38.1 13.12 38.1 C13.12 35.13 13.12 32.16 13.12 29.1 C5.53 29.1 -2.06 29.1 -9.88 29.1 C-9.88 32.07 -9.88 35.04 -9.88 38.1 C-12.52 38.1 -15.16 38.1 -17.88 38.1 C-17.97 34.06 -18.02 30.01 -18.07 25.97 C-18.1 24.83 -18.12 23.69 -18.15 22.51 C-18.21 15.56 -18.11 10.52 -13.13 5.23 C-12.53 4.76 -11.94 4.28 -11.32 3.79 C-10.72 3.29 -10.12 2.8 -9.5 2.3 C-6.25 -0.11 -4 -0.02 0 0 Z M-6.88 10.1 C-10.29 14.04 -9.88 15.54 -9.88 21.1 C-2.29 21.1 5.3 21.1 13.12 21.1 C13.12 16.48 13.12 11.86 13.12 7.1 C-0.32 6.64 -0.32 6.64 -6.88 10.1 Z " fill="#4F46E5" transform="translate(34.8828125,5.90234375)"/>
<path d="M0 0 C1.22 -0.03 2.45 -0.06 3.71 -0.09 C10.64 -0.14 15.32 -0.01 20.88 4.31 C25.62 10.64 25.43 17.68 24.88 25.31 C23.69 30.47 20.83 33.87 16.88 37.31 C14.07 38.72 11.72 38.44 8.59 38.45 C7.34 38.45 6.09 38.45 4.79 38.45 C3.48 38.45 2.17 38.44 0.81 38.44 C-0.51 38.44 -1.82 38.45 -3.18 38.45 C-4.43 38.45 -5.68 38.45 -6.97 38.45 C-8.13 38.44 -9.28 38.44 -10.47 38.44 C-13.12 38.31 -13.12 38.31 -14.12 37.31 C-14.23 34.66 -14.26 32.03 -14.26 29.38 C-14.26 28.58 -14.26 27.78 -14.26 26.97 C-14.26 25.28 -14.26 23.6 -14.26 21.91 C-14.25 19.32 -14.26 16.74 -14.26 14.15 C-14.26 12.52 -14.26 10.88 -14.26 9.25 C-14.26 8.47 -14.26 7.69 -14.26 6.89 C-14.22 -2.58 -8.12 0.06 0 0 Z M-6.12 7.31 C-6.12 15.23 -6.12 23.15 -6.12 31.31 C-3.75 31.35 -1.38 31.39 1.06 31.44 C1.8 31.46 2.54 31.47 3.3 31.49 C7.29 31.53 10.33 31.18 13.88 29.31 C17.33 25.5 17.33 21.6 17.16 16.69 C16.78 13.52 16.02 11.68 13.88 9.31 C9.66 7.1 5.71 7.07 1.06 7.19 C-1.31 7.23 -3.68 7.27 -6.12 7.31 Z " fill="#4F46E5" transform="translate(122.125,5.6875)"/>
<path d="M0 0 C2.64 0 5.28 0 8 0 C8.03 0.68 8.05 1.35 8.08 2.05 C8.19 5.12 8.31 8.18 8.44 11.25 C8.48 12.31 8.52 13.38 8.56 14.47 C8.58 14.99 8.58 14.99 8.68 17.58 C8.72 18.52 8.76 19.46 8.79 20.43 C8.98 22.78 9.2 24.79 10 27 C12.38 28.19 12.38 28.19 15 29 C15.99 29.33 16.98 29.66 18 30 C22.29 30.33 26.58 30.66 31 31 C31 20.77 31 10.54 31 0 C33.64 0 36.28 0 39 0 C39.02 5.25 39.04 10.5 39.05 15.75 C39.06 17.54 39.07 19.33 39.08 21.12 C39.09 23.68 39.09 26.24 39.1 28.81 C39.1 29.61 39.11 30.42 39.11 31.25 C39.11 33.16 39.06 35.08 39 37 C36.36 39.64 28.86 38.28 25.31 38.31 C24.13 38.34 22.94 38.37 21.72 38.4 C13.8 38.46 10.05 37.94 4.36 32.4 C0.72 27.85 -0.13 24.98 -0.1 19.24 C-0.09 18.12 -0.09 17 -0.09 15.85 C-0.08 14.68 -0.07 13.52 -0.06 12.31 C-0.06 11.72 -0.06 11.72 -0.05 8.74 C-0.04 5.83 -0.02 2.91 0 0 Z " fill="#4F46E5" transform="translate(62,6)"/>
<path d="M0 0 C1.43 0 2.87 0.01 4.3 0.02 C4.68 0.02 4.68 0.02 6.58 0.02 C9 0.03 11.41 0.04 13.83 0.05 C15.46 0.06 17.09 0.06 18.73 0.06 C22.74 0.08 26.75 0.09 30.77 0.11 C30.77 2.42 30.77 4.73 30.77 7.11 C21.86 7.11 12.95 7.11 3.77 7.11 C3.77 14.7 3.77 22.29 3.77 30.11 C8.22 30.28 8.22 30.28 30.77 31.11 C30.77 33.42 30.77 35.73 30.77 38.11 C26.57 38.21 22.37 38.29 18.17 38.33 C16.74 38.35 15.31 38.38 13.88 38.42 C11.83 38.46 9.77 38.49 7.72 38.5 C7.1 38.51 7.1 38.51 3.97 38.57 C0.18 38.03 -0.92 37.1 -3.23 34.11 C-4.72 31.15 -4.36 28.47 -4.37 25.17 C-4.37 24.49 -4.37 23.81 -4.37 23.1 C-4.37 21.66 -4.37 20.22 -4.36 18.77 C-4.36 16.56 -4.36 14.34 -4.37 12.12 C-4.37 10.72 -4.37 9.32 -4.37 7.92 C-4.37 6.64 -4.37 5.36 -4.36 4.04 C-4.18 -0.06 -4.16 0.15 0 0 Z " fill="#7C3AED" transform="translate(312.234619140625,5.886474609375)"/>
<path d="M0 0 C12.54 0 25.08 0 38 0 C38 2.31 38 4.62 38 7 C33.05 7 28.1 7 23 7 C23 17.23 23 27.46 23 38 C20.36 38 17.72 38 15 38 C15 27.77 15 17.54 15 7 C10.05 7 5.1 7 0 7 C0 4.69 0 2.38 0 0 Z " fill="#7C3AED" transform="translate(266,6)"/>
<path d="M0 0 C2.64 0 5.28 0 8 0 C8 12.54 8 25.08 8 38 C5.36 38 2.72 38 0 38 C0 25.46 0 12.92 0 0 Z " fill="#4F46E5" transform="translate(152,6)"/>
<path d="M0 0 C7.26 0 14.52 0 22 0 C22 2.64 22 5.28 22 8 C14.74 8 7.48 8 0 8 C0 5.36 0 2.72 0 0 Z " fill="#7C3AED" transform="translate(318,21)"/>
<path d="M0 0 C0.62 1.81 0.62 1.81 1 4 C0.67 4.5 0.67 4.5 -1 7 C-1.99 6.84 -1.99 6.84 -7 6 C-7 4.02 -7 2.04 -7 0 C-4.33 -1.33 -2.83 -0.67 0 0 Z " fill="#F59E0B" transform="translate(173,22)"/>
</svg>
