<svg width="200" height="28" viewBox="0.0005 0.0198 6.3062 0.8202" xmlns="http://www.w3.org/2000/svg" role="img" aria-label="AUDIGATE">
  <title>AUDIGATE</title>
  <path d="M0.7607421875 0.78H0.6337890625V0.608125H0.1875V0.78H0.060546875V0.42990234375Q0.060546875 0.3532421875 0.0869140625 0.2887890625Q0.11328125 0.22433593750000003 0.16015625 0.17794921875000003Q0.20703125 0.13156250000000003 0.27099609375 0.10568359375000003Q0.3349609375 0.07980468750000003 0.41064453125 0.07980468750000003H0.69677734375Q0.7099609375 0.07980468750000003 0.7216796875 0.08468750000000003Q0.7333984375 0.08957031250000003 0.7421875 0.09835937500000003Q0.7509765625 0.10714843750000003 0.755859375 0.11886718750000003Q0.7607421875 0.13058593750000003 0.7607421875 0.14376953125000003ZM0.1875 0.481171875H0.6337890625V0.20675781250000003H0.41064453125Q0.40478515625 0.20675781250000003 0.385986328125 0.20846679687500003Q0.3671875 0.21017578125000003 0.342529296875 0.21701171875000003Q0.31787109375 0.22384765625000003 0.29052734375 0.23800781250000003Q0.26318359375 0.25216796875 0.240234375 0.2770703125Q0.21728515625 0.30197265625 0.202392578125 0.339326171875Q0.1875 0.3766796875 0.1875 0.42990234375Z" fill="#A5B4FC"/>
  <path d="M1.59423828125 0.71603515625Q1.59423828125 0.72970703125 1.58935546875 0.74142578125Q1.58447265625 0.75314453125 1.57568359375 0.761689453125Q1.56689453125 0.770234375 1.55517578125 0.7751171875Q1.54345703125 0.78 1.5302734375 0.78H1.244140625Q1.20361328125 0.78 1.162109375 0.7712109375Q1.12060546875 0.762421875 1.081787109375 0.744111328125Q1.04296875 0.72580078125 1.0087890625 0.69748046875Q0.974609375 0.66916015625 0.948974609375 0.630341796875Q0.92333984375 0.5915234375 0.90869140625 0.541474609375Q0.89404296875 0.49142578125 0.89404296875 0.42990234375V0.07980468750000003H1.02099609375V0.42990234375Q1.02099609375 0.48361328125 1.035888671875 0.52072265625Q1.05078125 0.55783203125 1.07373046875 0.582734375Q1.0966796875 0.60763671875 1.1240234375 0.621796875Q1.1513671875 0.63595703125 1.176025390625 0.64279296875Q1.20068359375 0.64962890625 1.219482421875 0.651337890625Q1.23828125 0.653046875 1.244140625 0.653046875H1.46728515625V0.07980468750000003H1.59423828125Z" fill="#A5B4FC"/>
  <path d="M2.4404296875 0.48703125Q2.4404296875 0.55099609375 2.418212890625 0.60470703125Q2.39599609375 0.65841796875 2.35693359375 0.697236328125Q2.31787109375 0.7360546875 2.26416015625 0.75802734375Q2.21044921875 0.78 2.1474609375 0.78H1.8046875Q1.791015625 0.78 1.779296875 0.7751171875Q1.767578125 0.770234375 1.759033203125 0.761689453125Q1.75048828125 0.75314453125 1.74560546875 0.74142578125Q1.74072265625 0.72970703125 1.74072265625 0.71603515625V0.14376953125000003Q1.74072265625 0.13058593750000003 1.74560546875 0.11886718750000003Q1.75048828125 0.10714843750000003 1.759033203125 0.09835937500000003Q1.767578125 0.08957031250000003 1.779296875 0.08468750000000003Q1.791015625 0.07980468750000003 1.8046875 0.07980468750000003H2.1474609375Q2.21044921875 0.07980468750000003 2.26416015625 0.10177734375000003Q2.31787109375 0.12375000000000003 2.35693359375 0.16256835937500003Q2.39599609375 0.20138671875000003 2.418212890625 0.255341796875Q2.4404296875 0.309296875 2.4404296875 0.3727734375ZM2.3134765625 0.3727734375Q2.3134765625 0.3356640625 2.301513671875 0.30490234375Q2.28955078125 0.274140625 2.267578125 0.252412109375Q2.24560546875 0.23068359375000003 2.215087890625 0.21872070312500003Q2.1845703125 0.20675781250000003 2.1474609375 0.20675781250000003H1.86767578125V0.653046875H2.1474609375Q2.1845703125 0.653046875 2.215087890625 0.641083984375Q2.24560546875 0.62912109375 2.267578125 0.607392578125Q2.28955078125 0.5856640625 2.301513671875 0.555146484375Q2.3134765625 0.52462890625 2.3134765625 0.48703125Z" fill="#A5B4FC"/>
  <path d="M2.69287109375 0.78H2.56591796875V0.07980468750000003H2.69287109375Z" fill="#A5B4FC"/>
  <circle cx="2.9376" cy="0.4859" r="0.0430" fill="#FBBF24"/>
  <path d="M3.8722265625 0.71603515625Q3.8722265625 0.72970703125 3.86734375 0.74142578125Q3.8624609375 0.75314453125 3.853916015625 0.761689453125Q3.84537109375 0.770234375 3.83365234375 0.7751171875Q3.82193359375 0.78 3.80826171875 0.78H3.35025390625Q3.33267578125 0.78 3.312412109375 0.775849609375Q3.2921484375 0.77169921875 3.272373046875 0.76291015625Q3.25259765625 0.75412109375 3.23453125 0.740205078125Q3.21646484375 0.7262890625 3.202548828125 0.706513671875Q3.1886328125 0.68673828125 3.18033203125 0.660615234375Q3.17203125 0.6344921875 3.17203125 0.60177734375V0.25802734375Q3.17203125 0.24044921875000003 3.176181640625 0.22018554687500003Q3.18033203125 0.19992187500000003 3.18912109375 0.18014648437500003Q3.19791015625 0.16037109375000003 3.2120703125 0.14230468750000003Q3.22623046875 0.12423828125000003 3.246005859375 0.11032226562500003Q3.26578125 0.09640625000000003 3.29166015625 0.08810546875000003Q3.3175390625 0.07980468750000003 3.35025390625 0.07980468750000003H3.8663671875V0.20675781250000003H3.35025390625Q3.3253515625 0.20675781250000003 3.31216796875 0.21994140625000003Q3.298984375 0.23312500000000003 3.298984375 0.25900390625V0.60177734375Q3.298984375 0.62619140625 3.312412109375 0.639619140625Q3.32583984375 0.653046875 3.35025390625 0.653046875H3.7452734375V0.4938671875H3.4073828125V0.3659375H3.80826171875Q3.82193359375 0.3659375 3.83365234375 0.371064453125Q3.84537109375 0.37619140625 3.853916015625 0.38498046875Q3.8624609375 0.39376953125 3.86734375 0.405244140625Q3.8722265625 0.41671875 3.8722265625 0.42990234375Z" fill="#FAFAFA"/>
  <path d="M4.6915625 0.78H4.564609375V0.608125H4.1183203125V0.78H3.9913671875V0.42990234375Q3.9913671875 0.3532421875 4.017734375 0.2887890625Q4.0441015625 0.22433593750000003 4.0909765625 0.17794921875000003Q4.1378515625 0.13156250000000003 4.20181640625 0.10568359375000003Q4.26578125 0.07980468750000003 4.34146484375 0.07980468750000003H4.62759765625Q4.64078125 0.07980468750000003 4.6525 0.08468750000000003Q4.66421875 0.08957031250000003 4.6730078125 0.09835937500000003Q4.681796875 0.10714843750000003 4.6866796875 0.11886718750000003Q4.6915625 0.13058593750000003 4.6915625 0.14376953125000003ZM4.1183203125 0.481171875H4.564609375V0.20675781250000003H4.34146484375Q4.33560546875 0.20675781250000003 4.316806640625 0.20846679687500003Q4.2980078125 0.21017578125000003 4.273349609375 0.21701171875000003Q4.24869140625 0.22384765625000003 4.22134765625 0.23800781250000003Q4.19400390625 0.25216796875 4.1710546875 0.2770703125Q4.14810546875 0.30197265625 4.133212890625 0.339326171875Q4.1183203125 0.3766796875 4.1183203125 0.42990234375Z" fill="#FAFAFA"/>
  <path d="M5.4718359375 0.20675781250000003H5.19205078125V0.78H5.06509765625V0.20675781250000003H4.78482421875V0.07980468750000003H5.4718359375Z" fill="#FAFAFA"/>
  <path d="M6.14078125 0.4938671875H5.73990234375V0.3659375H6.14078125ZM6.19791015625 0.78H5.73990234375Q5.71353515625 0.78 5.68228515625 0.77072265625Q5.65103515625 0.7614453125 5.624423828125 0.740205078125Q5.5978125 0.71896484375 5.579990234375 0.685029296875Q5.56216796875 0.65109375 5.56216796875 0.60177734375V0.14376953125000003Q5.56216796875 0.13058593750000003 5.56705078125 0.11886718750000003Q5.57193359375 0.10714843750000003 5.580478515625 0.09835937500000003Q5.5890234375 0.08957031250000003 5.6007421875 0.08468750000000003Q5.6124609375 0.07980468750000003 5.6261328125 0.07980468750000003H6.19791015625V0.20675781250000003H5.68912109375V0.60177734375Q5.68912109375 0.6266796875 5.7023046875 0.63986328125Q5.71548828125 0.653046875 5.74087890625 0.653046875H6.19791015625Z" fill="#FAFAFA"/>
</svg>
